<?xml version="1.0" encoding="UTF-8"?>
<svg width="58px" height="173px" viewBox="0 0 58 173" version="1.1" xmlns="http://www.w3.org/2000/svg" xmlns:xlink="http://www.w3.org/1999/xlink">
    <title>群組</title>
    <g id="組件" stroke="none" stroke-width="1" fill="none" fill-rule="evenodd">
        <g id="header" transform="translate(-120.000000, -37.000000)">
            <g id="群組" transform="translate(120.000000, 37.000000)">
                <g id="logo/black" fill="#C5A47F">
                    <polygon id="Fill-91" points="55.1686783 3.48 55.1686783 54.4451419 4.92028431 54.4451419 4.92028431 6.36141658 39.8095528 6.36141658 25.7104365 27.8364368 12.6848148 27.8364368 10.794801 30.7178534 24.8386538 30.7178534 42.7191793 3.48 2.03 3.48 2.03 55.245 55.97 55.245 55.97 3.48"></polygon>
                </g>
                <g id="logo/black-text" transform="translate(0.000000, 73.000000)">
                    <g id="群組" fill="#C5A47F">
                        <path d="M23.3383028,6.06085783 C23.3383028,6.06085783 23.3232341,4.84 22.3670567,4.84 L21.5807445,4.84 L20.7478565,4.84 L2.175,4.84 L2.175,5.60127393 L21.5807445,5.60127393 C21.5807445,5.60127393 21.9054065,5.66471343 21.9054065,6.17222938 L21.9054065,9.61487929 C21.9054065,9.61487929 21.9191053,10.8216394 21.1643005,11.2812233 C21.1643005,11.2812233 23.3232341,11.6139282 23.3383028,8.79157562 C23.3533715,5.96640347 23.3383028,6.06085783 23.3383028,6.06085783" id="Fill-1"></path>
                        <path d="M20.735,10.2769333 L3.48,10.2769333 L3.48,10.9897333 L20.0286226,10.9897333 C20.2059095,10.9105333 20.6241957,10.6874533 20.735,10.2769333" id="Fill-5"></path>
                        <path d="M24.65,15.5569333 L3.045,15.5569333 L3.045,16.2697333 L23.9492527,16.2697333 C24.1251266,16.1905333 24.5400789,15.9674533 24.65,15.5569333" id="Fill-7"></path>
                        <path d="M12.035,11.7333333 L14.07492,11.7333333 C14.07492,11.7333333 13.6488094,13.9381585 15.08,14.7374609 C15.08,14.7374609 12.5530964,15.5679971 12.035,11.7333333" id="Fill-9"></path>
                        <path d="M20.3173812,1.45207085 L2.175,1.45207085 L2.175,2.19956204 L20.0579887,2.19956204 C20.0579887,2.19956204 22.2744911,2.28676935 23.345,0 C23.345,0 21.9656904,1.45207085 20.3173812,1.45207085" id="Fill-11"></path>
                        <path d="M2.04635671,4.84 L2.04635671,22.7689848 C2.04635671,22.7689848 2.1272561,26.4676552 0.435,28.3066667 C0.435,28.3066667 3.48,27.768453 3.48,22.7689848 L3.48,4.84 L2.04635671,4.84 Z" id="Fill-13"></path>
                        <path d="M8.29050283,15.6933333 L8.29050283,22.7140279 C8.29050283,22.7140279 8.37906835,26.4489428 6.525,28.3066667 C6.525,28.3066667 9.86,27.764367 9.86,22.7140279 L9.86,15.6933333 L8.29050283,15.6933333 Z" id="Fill-15"></path>
                        <path d="M49.155,11.5969333 L40.6,11.5969333 L40.6,12.3097333 L48.4614616,12.3097333 C48.6355261,12.2305333 49.0462097,12.0087733 49.155,11.5969333" id="Fill-17"></path>
                        <path d="M33.9476829,6.6 L33.9476829,22.7957541 C33.9476829,22.7957541 34.0285823,26.4765451 32.335,28.3066667 C32.335,28.3066667 35.38,27.7710547 35.38,22.7957541 L35.38,6.6 L33.9476829,6.6 Z" id="Fill-21"></path>
                        <polyline id="Fill-23" points="45.675 18.7733333 45.675 7.04 43.935 7.04 43.935 18.7733333"></polyline>
                        <path d="M53.8126829,8.21333333 L53.8126829,22.7324229 C53.8126829,22.7324229 53.8935823,26.4550531 52.2,28.3066667 C52.2,28.3066667 55.245,27.7647648 55.245,22.7324229 L55.245,8.21333333 L53.8126829,8.21333333 Z" id="Fill-25"></path>
                        <path d="M55.6729863,7.29966359 C55.6729863,7.29966359 55.6579178,6.30666667 54.7017547,6.30666667 L53.9154543,6.30666667 L53.0825787,6.30666667 L34.51,6.30666667 L34.51,6.92585643 L53.3086058,6.92585643 C53.3086058,6.92585643 54.2223033,6.84559109 54.1962759,7.39024876 C54.1894266,7.55077944 54.1962759,7.4200616 54.1962759,7.92 L55.6784658,7.92 C55.6839452,6.66327411 55.6729863,7.29966359 55.6729863,7.29966359" id="Fill-27"></path>
                        <path d="M37.8578043,0.44 C37.8578043,0.441330556 37.8578043,0.443991669 37.8578043,0.445322225 L37.8578043,3.69454076 C37.8578043,3.69454076 37.8741999,4.83349697 37.12,5.26858889 C37.12,5.26858889 39.2732954,5.58260018 39.2883248,2.91616531 C39.2978889,1.21039211 39.2951563,0.634261223 39.2924237,0.44 L37.8578043,0.44 Z" id="Fill-29"></path>
                        <path d="M51.3298504,3.10710961 C51.3311811,2.04678132 51.323197,2.09300435 51.323197,2.09300435 C51.323197,2.09300435 51.3072287,0.88 50.3797412,0.88 L49.6159279,0.88 L48.8068714,0.88 L38.86,0.88 L38.86,1.63637685 L49.0264344,1.63637685 C48.9199796,1.63637685 49.9552527,1.538328 49.9299696,2.20365948 C49.9246469,2.34933206 49.9299696,3.10710961 49.9299696,3.10710961 L49.9299696,4.93361963 C49.9299696,4.93361963 49.9446072,6.13121631 49.2113997,6.58784381 C49.2113997,6.58784381 51.3072287,6.9198092 51.323197,4.11421138 C51.3298504,2.66729048 51.3298504,3.42366733 51.3285197,3.10710961 L51.3298504,3.10710961 Z" id="Fill-31"></path>
                        <path d="M22.4621496,21.4920102 C22.491063,18.7801243 22.4621496,19.5058212 22.4621496,19.5058212 C22.4621496,19.5058212 22.4470046,18.3333333 21.4859812,18.3333333 L20.695684,18.3333333 L19.8585748,18.3333333 L9.425,18.3333333 L9.425,19.0644459 L20.695684,19.0644459 C20.695684,19.0644459 21.0219914,19.1253719 21.0219914,19.6127802 L21.0219914,22.2840488 C21.0219914,22.2840488 21.4006181,27.4654703 15.1401978,28.2277228 C15.1401978,28.2277228 22.3767865,29.5369558 22.4621496,21.4920102" id="Fill-3"></path>
                        <path d="M54.81,18.6369333 L34.51,18.6369333 L34.51,19.3497333 L54.1078161,19.3497333 C54.2840505,19.2705333 54.6998535,19.0474533 54.81,18.6369333" id="Fill-19"></path>
                        <path d="M13.34,44.3036 L1.305,44.3036 L1.305,45.0164 L12.6295185,45.0164 C12.8078354,44.9372 13.2285519,44.71412 13.34,44.3036" id="Fill-33"></path>
                        <path d="M13.34,49.5836 L0.87,49.5836 L0.87,50.2964 L12.6412854,50.2964 C12.8166491,50.2172 13.2303977,49.99412 13.34,49.5836" id="Fill-35"></path>
                        <path d="M20.8365505,41.36 L20.8365505,64.1706596 C20.8365505,64.1706596 20.929007,67.938523 18.995,69.8133333 C18.995,69.8133333 22.475,69.2660459 22.475,64.1706596 L22.475,41.36 L20.8365505,41.36 Z" id="Fill-37"></path>
                        <path d="M17.69,60.1075608 L17.69,44.44 L16.385,44.44 L16.385,63.6533333 C16.385,63.6533333 17.69,62.5691693 17.69,60.1075608" id="Fill-39"></path>
                        <path d="M7.83,66.2322855 L7.83,41.36 L6.09,41.36 L6.09,69.8133333 C6.09,69.8133333 7.83,68.7174092 7.83,66.2322855" id="Fill-41"></path>
                        <path d="M0.737635422,41.6533333 C0.737635422,41.6560337 0.737635422,41.6573838 0.737635422,41.6600841 L0.737635422,46.5004095 C0.737635422,46.5004095 0.75402732,47.6547968 0,48.0949491 C0,48.0949491 2.15280264,48.4149371 2.16782854,45.7105656 C2.17875648,43.9796599 2.1746585,41.8504568 2.17192652,41.6533333 L0.737635422,41.6533333 Z" id="Fill-43"></path>
                        <path d="M2.175,62.3773453 L2.175,54.12 L0.87,54.12 L0.87,65.8533333 C0.87,65.8533333 2.175,64.7905067 2.175,62.3773453" id="Fill-45"></path>
                        <path d="M12.9048479,56.2699074 C12.9062006,55.2463351 12.8980845,55.2909558 12.8980845,55.2909558 C12.8980845,55.2909558 12.8832049,54.12 11.9390301,54.12 L11.1625883,54.12 L10.3401551,54.12 L0.87,54.12 L0.87,54.8501572 L10.564701,54.8501572 C10.4551335,54.8501572 11.5075232,54.7555072 11.4818222,55.3977751 C11.4764114,55.538398 11.4818222,56.2699074 11.4818222,56.2699074 L11.4818222,64.2434947 C11.4818222,64.2434947 11.4967017,65.4009291 10.7513717,65.8417277 C10.7513717,65.8417277 12.8832049,66.1608335 12.8980845,63.452491 C12.9062006,62.0570794 12.9048479,56.5754917 12.9034952,56.2699074 L12.9048479,56.2699074 Z" id="Fill-47"></path>
                        <path d="M54.375,46.9436 L41.76,46.9436 L41.76,47.6564 L53.6835071,47.6564 C53.8570583,47.5772 54.2665305,47.35412 54.375,46.9436" id="Fill-49"></path>
                        <path d="M54.375,54.42294 L44.37,54.42294 L44.37,55.13706 L53.6870466,55.13706 C53.8597095,55.05786 54.2670857,54.83478 54.375,54.42294" id="Fill-51"></path>
                        <path d="M54.375,60.4369333 L44.37,60.4369333 L44.37,61.1497333 L53.6870466,61.1497333 C53.8597095,61.0705333 54.2670857,60.8474533 54.375,60.4369333" id="Fill-53"></path>
                        <path d="M36.685,66.2675608 L36.685,50.6 L34.945,50.6 L34.945,69.8133333 C34.945,69.8133333 36.685,68.7291693 36.685,66.2675608" id="Fill-55"></path>
                        <path d="M44.37,66.2818944 L44.37,47.52 L42.63,47.52 L42.63,69.8133333 C42.63,69.8133333 44.37,68.7335519 44.37,66.2818944" id="Fill-57"></path>
                        <path d="M37.2177055,41.36 L32.1660021,53.5456193 C32.1660021,53.5456193 31.7242235,54.6181784 31.03,54.8722794 C31.03,54.8722794 32.8616282,55.8830681 34.4408114,52.2175552 C36.0185922,48.5520423 38.86,41.36 38.86,41.36 L37.2177055,41.36 Z" id="Fill-59"></path>
                        <path d="M42.7732883,41.36 L38.6608353,51.3513599 C38.6608353,51.3513599 38.229955,52.420716 37.555,52.6733968 C37.555,52.6733968 39.3357903,53.6771397 40.8697789,50.0321151 C42.4051311,46.3884866 44.37,41.36 44.37,41.36 L42.7732883,41.36 Z" id="Fill-61"></path>
                    </g>
                    <g id="群組-2" transform="translate(1.305000, 81.986667)" fill="#949494">
                        <path d="M1.47221007,0.2992 C1.45317287,0.997333333 1.45317287,1.70866667 1.45317287,2.4552 L2.3961488,2.4552 L2.4887965,1.67933333 L2.77816193,1.67933333 L2.77816193,3.53026667 L2.4887965,3.53026667 L2.3961488,2.72506667 L1.45317287,2.72506667 C1.45317287,3.5156 1.45317287,4.24893333 1.47221007,4.96026667 L2.1321663,5.03213333 L2.1321663,5.28 L0,5.28 L0,5.03213333 L0.585076586,4.9676 C0.597768053,4.26213333 0.597768053,3.54493333 0.597768053,2.81893333 L0.597768053,2.4684 C0.597768053,1.75706667 0.597768053,1.03986667 0.585076586,0.3212 L0,0.256666667 L0,0 L3.47365427,0 L3.48,1.3948 L3.14748359,1.3948 L2.91396061,0.2992 L1.47221007,0.2992 Z" id="Fill-63"></path>
                        <path d="M11.6,0.250203087 L10.9121024,0.347424858 L10.8854288,3.02531275 C10.8784094,4.59372868 10.2031466,5.28 9.05899032,5.28 C7.92185339,5.28 7.14551176,4.69666937 7.14551176,3.14255077 L7.14551176,2.373355 C7.14551176,1.69423233 7.14551176,0.999382616 7.12445367,0.313111292 L6.525,0.250203087 L6.525,0 L8.80067773,0 L8.80067773,0.250203087 L8.10576072,0.320259951 C8.08470263,0.993663688 8.08470263,1.68708367 8.08470263,2.373355 L8.08470263,3.01959383 C8.08470263,4.2949147 8.53394191,4.75242892 9.31870678,4.75242892 C10.1483956,4.75242892 10.5990387,4.23915516 10.5920194,2.94953696 L10.5709613,0.354573517 L9.78198479,0.250203087 L9.78198479,0 L11.6,0 L11.6,0.250203087 Z" id="Fill-65"></path>
                        <polygon id="Fill-67" points="18.995 0.255248619 18.40628 0.347138122 18.37328 5.28 17.9324 5.28 15.101 0.878055249 15.11948 4.91098343 15.94052 5.00433149 15.94052 5.25228729 14.21 5.25228729 14.21 5.00433149 14.80664 4.91827624 14.83832 0.468198895 14.73536 0.319425414 14.2496 0.255248619 14.2496 0 15.59996 0 18.11192 3.85060773 18.09212 0.354430939 17.2658 0.255248619 17.2658 0 18.995 0"></polygon>
                        <path d="M24.0305738,2.22933333 C25.0155718,2.66374603 25.375,3.07161905 25.375,3.80215873 C25.375,4.69053968 24.6890683,5.28 23.5380749,5.28 C22.9852139,5.28 22.4131469,5.12355556 22.04,4.87911111 L22.0811559,3.75466667 L22.4529309,3.75466667 L22.732791,4.8455873 C22.9591485,4.94755556 23.1717873,4.98247619 23.4516475,4.98247619 C24.1307199,4.98247619 24.5436508,4.65561905 24.5436508,4.09409524 C24.5436508,3.6191746 24.3159214,3.38171429 23.7315076,3.13168254 L23.4255821,2.99619048 C22.5860016,2.6232381 22.1072213,2.1832381 22.1072213,1.4024127 C22.1072213,0.508444444 22.8260777,0 23.8302818,0 C24.350218,0 24.7754957,0.149460317 25.1225771,0.379936508 L25.0759338,1.44431746 L24.7027869,1.44431746 L24.4242986,0.399492063 C24.2706499,0.325460317 24.1170012,0.29752381 23.9235685,0.29752381 C23.3391547,0.29752381 22.9330831,0.596444444 22.9330831,1.1328254 C22.9330831,1.60634921 23.2047121,1.87034921 23.697211,2.08685714 L24.0305738,2.22933333 Z" id="Fill-69"></path>
                        <path d="M30.1776034,0.146666667 C30.16,0.873000187 30.16,1.61415684 30.16,2.36124275 L30.16,2.78666667 L30.4393076,2.78666667 C31.157527,2.78666667 31.465,2.23969306 31.465,1.44813775 C31.465,0.600254539 31.1457914,0.146666667 30.4792086,0.146666667 L30.1776034,0.146666667 Z M29.9646847,3.3132 C29.9646847,3.86906667 29.9646847,4.48066667 29.9849207,5.10546667 L30.6864369,5.17733333 L30.6864369,5.42666667 L28.42,5.42666667 L28.42,5.17733333 L29.0419211,5.1128 C29.0554118,4.4088 29.0554118,3.6916 29.0554118,2.96413333 L29.0554118,2.61506667 C29.0554118,1.90373333 29.0554118,1.18653333 29.0419211,0.4664 L28.42,0.401866667 L28.42,0.146666667 L30.3721037,0.146666667 C31.7522019,0.146666667 32.335,0.745066667 32.335,1.7116 C32.335,2.59306667 31.7845796,3.3132 30.2736216,3.3132 L29.9646847,3.3132 Z" id="Fill-71"></path>
                        <path d="M37.12,3.22666667 L36.2333969,0.586666667 L35.38,3.22666667 L37.12,3.22666667 Z M39.295,5.17836791 L39.295,5.42666667 L36.9632611,5.42666667 L36.9632611,5.17836791 L37.664122,5.09949654 L37.2087856,3.7250899 L35.4826739,3.7250899 L35.0570981,5.09219364 L35.7653991,5.17836791 L35.7653991,5.42666667 L34.075,5.42666667 L34.075,5.17836791 L34.6969954,5.09219364 L36.3427537,0.146666667 L36.9707013,0.146666667 L38.696813,5.11410235 L39.295,5.17836791 Z" id="Fill-73"></path>
                        <path d="M45.675,4.89437417 C45.2636605,5.1388833 44.8020608,5.28 44.2439088,5.28 C42.8194307,5.28 41.76,4.3257158 41.76,2.63790421 C41.76,0.941709447 42.8961436,0 44.2703615,0 C44.7769307,0 45.1935608,0.121555967 45.6234172,0.380037047 L45.6101909,1.55228367 L45.2451436,1.55228367 L44.9620997,0.392611802 C44.7769307,0.311574491 44.5904392,0.276644615 44.3841081,0.276644615 C43.4357787,0.276644615 42.7162652,1.05767663 42.7162652,2.64489018 C42.7162652,4.24328129 43.4225524,5.00335539 44.3841081,5.00335539 C44.6023429,5.00335539 44.8020608,4.96283673 45.0136824,4.87341625 L45.2967264,3.72911352 L45.6683868,3.72911352 L45.675,4.89437417 Z" id="Fill-75"></path>
                        <path d="M52.635,3.84893085 L52.614205,5.28 L48.72,5.28 L48.72,5.03073591 L49.3590988,4.96622049 C49.3715758,4.26094974 49.3715758,3.5439489 49.3715758,2.81815051 L49.3715758,2.46918078 C49.3715758,1.75657873 49.3715758,1.0395779 49.3590988,0.321110803 L48.72,0.25659539 L48.72,0 L52.4797309,0 L52.4866625,1.39441266 L52.1234437,1.39441266 L51.8683587,0.299116912 L50.3267581,0.299116912 C50.3073495,0.997056373 50.3073495,1.70819217 50.3073495,2.45451819 L51.3165988,2.45451819 L51.417801,1.68033324 L51.7338846,1.68033324 L51.7338846,3.47210219 L51.417801,3.47210219 L51.3235305,2.72430991 L50.3073495,2.72430991 C50.3073495,3.52928631 50.3073495,4.26094974 50.3267581,4.98674813 L52.0028329,4.98674813 L52.2648495,3.84893085 L52.635,3.84893085 Z" id="Fill-77"></path>
                        <path d="M2.18384843,16.72 C3.29132874,16.72 3.915,15.823203 3.915,14.3015022 C3.915,12.733234 3.29132874,11.88 2.23237205,11.88 L1.76140748,11.88 C1.74,12.6175667 1.74,13.3746617 1.74,14.1467784 L1.74,14.387126 C1.74,15.2193296 1.74,15.9764246 1.76140748,16.72 L2.18384843,16.72 Z M2.21074638,11.88 C3.81046113,11.88 4.785,12.8626667 4.785,14.5141333 C4.785,16.1714667 3.73408218,17.16 2.0876914,17.16 L0,17.16 L0,16.9121333 L0.652049956,16.8476 C0.666194206,16.1421333 0.666194206,15.4102667 0.666194206,14.6050667 L0.666194206,14.3704 C0.666194206,13.6370667 0.666194206,12.9198667 0.652049956,12.2012 L0,12.1366667 L0,11.88 L2.21074638,11.88 Z" id="Fill-79"></path>
                        <path d="M11.165,15.5822642 L11.144205,17.0133333 L7.25,17.0133333 L7.25,16.7640692 L7.8890988,16.6995538 C7.90157578,15.9942831 7.90157578,15.2772822 7.90157578,14.5514838 L7.90157578,14.2025141 C7.90157578,13.4899121 7.90157578,12.7729112 7.8890988,12.0544441 L7.25,11.9899287 L7.25,11.7333333 L11.0097309,11.7333333 L11.0166625,13.127746 L10.6534437,13.127746 L10.3983587,12.0324502 L8.85675814,12.0324502 C8.8373495,12.7303897 8.8373495,13.4415255 8.8373495,14.1878515 L9.8465988,14.1878515 L9.94780099,13.4136666 L10.2638846,13.4136666 L10.2638846,15.2054355 L9.94780099,15.2054355 L9.85353045,14.4576432 L8.8373495,14.4576432 C8.8373495,15.2626196 8.8373495,15.9942831 8.85675814,16.7200815 L10.5328329,16.7200815 L10.7948495,15.5822642 L11.165,15.5822642 Z" id="Fill-81"></path>
                        <path d="M16.2871205,14.1093333 C17.3149445,14.543746 17.69,14.951619 17.69,15.6821587 C17.69,16.5705397 16.9742452,17.16 15.7732086,17.16 C15.1963102,17.16 14.5993706,17.0035556 14.21,16.7591111 L14.2515138,15.6346667 L14.6408844,15.6346667 L14.9329124,16.7255873 C15.1691115,16.8275556 15.3909955,16.8624762 15.6830234,16.8624762 C16.3916207,16.8624762 16.8225051,16.535619 16.8225051,15.9740952 C16.8225051,15.4991746 16.586306,15.2617143 15.9750514,15.0116825 L15.6558248,14.8761905 C14.7797408,14.5032381 14.280144,14.0632381 14.280144,13.2824127 C14.280144,12.3884444 15.030255,11.88 16.0781201,11.88 C16.6206623,11.88 17.0644303,12.0294603 17.4266022,12.2599365 L17.3779309,13.3243175 L16.9885603,13.3243175 L16.6965323,12.2794921 C16.5376347,12.2054603 16.3773056,12.1775238 16.1754628,12.1775238 C15.5656397,12.1775238 15.1404813,12.4764444 15.1404813,13.0128254 C15.1404813,13.4863492 15.4253517,13.7503492 15.9392637,13.9668571 L16.2871205,14.1093333 Z" id="Fill-83"></path>
                        <path d="M22.167736,12.0544441 C22.1435842,12.7655799 22.1435842,13.478182 22.1435842,14.2025141 L22.1435842,14.5514838 C22.1435842,15.2626196 22.1435842,15.9898843 22.167736,16.6995538 L22.91,16.7640692 L22.91,17.0133333 L20.3,17.0133333 L20.3,16.7640692 L21.042264,16.6995538 C21.0583652,15.9957493 21.0583652,15.2772822 21.0583652,14.5514838 L21.0583652,14.2025141 C21.0583652,13.4899121 21.0583652,12.7729112 21.042264,12.0544441 L20.3,11.9899287 L20.3,11.7333333 L22.91,11.7333333 L22.91,11.9899287 L22.167736,12.0544441 Z" id="Fill-85"></path>
                        <path d="M30.16,14.6814148 L29.7060421,14.7359054 C29.698949,15.2109518 29.6918559,15.6985728 29.6918559,16.2336985 L29.6918559,16.5662309 C29.1612926,16.8638335 28.6661948,17.0133333 28.0263979,17.0133333 C26.4418011,17.0133333 25.375,15.9836006 25.375,14.3628544 C25.375,12.770052 26.4701734,11.7333333 28.0675378,11.7333333 C28.6732879,11.7333333 29.141432,11.8604781 29.5684361,12.1049872 L29.5542499,13.278631 L29.1485251,13.278631 L28.8591269,12.1524918 C28.6520086,12.0504966 28.4392158,12.0099779 28.1909576,12.0099779 C27.1582034,12.0099779 26.4020798,12.8105707 26.4020798,14.3698403 C26.4020798,15.8480727 27.1312496,16.7366887 28.1498177,16.7366887 C28.3767966,16.7366887 28.5768218,16.7087448 28.7754284,16.6542542 L28.7754284,16.2141378 C28.7754284,15.7181335 28.7697539,15.2444844 28.7555677,14.7568634 L27.9980255,14.6814148 L27.9980255,14.4438917 L30.16,14.4438917 L30.16,14.6814148 Z" id="Fill-87"></path>
                        <polygon id="Fill-89" points="37.555 11.988582 36.96628 12.0804715 36.93328 17.0133333 36.4924 17.0133333 33.661 12.6113886 33.67948 16.6443168 34.50052 16.7376648 34.50052 16.9856206 32.77 16.9856206 32.77 16.7376648 33.36664 16.6516096 33.39832 12.2015322 33.29536 12.0527587 32.8096 11.988582 32.8096 11.7333333 34.15996 11.7333333 36.67192 15.5839411 36.65212 12.0877643 35.8258 11.988582 35.8258 11.7333333 37.555 11.7333333"></polygon>
                    </g>
                </g>
            </g>
        </g>
    </g>
</svg>