<?xml version="1.0" encoding="UTF-8"?>
<svg width="1136px" height="280px" viewBox="0 0 1136 280" version="1.1" xmlns="http://www.w3.org/2000/svg" xmlns:xlink="http://www.w3.org/1999/xlink">
    <title>编组</title>
    <g id="LOGO-&amp;-SEO" stroke="none" stroke-width="1" fill="none" fill-rule="evenodd">
        <g id="logo-horizontal" transform="translate(-52.000000, -55.000000)" fill="#C5A47F">
            <g id="编组" transform="translate(52.000000, 55.000000)">
                <g id="logo/black">
                    <polygon id="Fill-91" points="266.331551 16.8 266.331551 262.838616 23.7530967 262.838616 23.7530967 30.710287 192.184048 30.710287 124.119348 134.382798 61.237037 134.382798 52.1128323 148.293085 119.910742 148.293085 206.230521 16.8 9.8 16.8 9.8 266.7 270.2 266.7 270.2 16.8"></polygon>
                </g>
                <path d="M462.950797,36.7626274 C462.950797,36.7626274 462.849315,29 456.622017,29 L451.501794,29 L446.0679,29 L325,29 L325,33.8481725 L451.501794,33.8481725 C451.501794,33.8481725 453.605237,34.2460187 453.605237,37.4657974 L453.605237,59.3380872 C453.605237,59.3380872 453.706719,67.0081922 448.78946,69.922647 C448.78946,69.922647 462.849315,72.0414094 462.950797,54.1013207 C463.061504,36.1612319 462.950797,36.7626274 462.950797,36.7626274" id="Fill-1"></path>
                <path d="M456.913536,136.902766 C457.10808,118.962305 456.913536,123.766794 456.913536,123.766794 C456.913536,123.766794 456.811633,116 450.54919,116 L445.407687,116 L439.960474,116 L372,116 L372,120.841517 L445.407687,120.841517 C445.407687,120.841517 447.529136,121.248834 447.529136,124.470341 L447.529136,142.142343 C447.529136,142.142343 450.002616,176.440282 409.23189,181.476201 C409.23189,181.476201 456.357698,190.1502 456.913536,136.902766" id="Fill-3"></path>
                <path d="M446,65.39 L335,65.39 L335,70.61 L441.452857,70.61 C442.594245,70.04 445.291235,68.4 446,65.39" id="Fill-5"></path>
                <path d="M472,98.385 L331,98.385 L331,103.615 L467.423522,103.615 C468.572273,103.045 471.286662,101.395 472,98.385" id="Fill-7"></path>
                <path d="M389,76 L402.400642,76 C402.400642,76 399.601193,89.6006044 409,94.532294 C409,94.532294 392.405232,99.6540119 389,76" id="Fill-9"></path>
                <path d="M325.114311,29 L325.114311,145.90346 C325.114311,145.90346 325.671917,170.01109 314,182 C314,182 335,178.495122 335,145.90346 L335,29 L325.114311,29 Z" id="Fill-13"></path>
                <path d="M365.114311,101 L365.114311,146.090215 C365.114311,146.090215 365.671917,170.070054 354,182 C354,182 375,178.512359 375,146.090215 L375,101 L365.114311,101 Z" id="Fill-15"></path>
                <path d="M645,72.39 L589,72.39 L589,77.61 L640.457471,77.61 C641.597701,77.04 644.282759,75.4 645,72.39" id="Fill-17"></path>
                <path d="M682,117.385 L550,117.385 L550,122.615 L677.430734,122.615 C678.586925,122.035 681.287786,120.395 682,117.385" id="Fill-19"></path>
                <path d="M547.118758,41 L547.118758,146.209885 C547.118758,146.209885 547.676113,170.112864 536,182 C536,182 557,178.524874 557,146.209885 L557,41 L547.118758,41 Z" id="Fill-21"></path>
                <polyline id="Fill-23" points="622 120 622 45 612 45 612 120"></polyline>
                <path d="M676.118758,52 L676.118758,145.944987 C676.118758,145.944987 676.676113,170.021806 665,182 C665,182 686,178.498254 686,145.944987 L686,52 L676.118758,52 Z" id="Fill-25"></path>
                <path d="M685.956203,48.0080764 C685.956203,48.0080764 685.845499,40 679.618373,40 L674.498292,40 L669.073774,40 L548,40 L548,44.9919236 L670.540608,44.9919236 C670.540608,44.9919236 676.500198,44.3333333 676.324916,48.7334802 C676.278789,50.0220264 676.324916,48.9816446 676.324916,53 L685.993105,53 C686.020781,42.8825257 685.956203,48.0080764 685.956203,48.0080764" id="Fill-27"></path>
                <path d="M659.998205,19.4073397 C660.007357,12.5547259 659.952446,12.8542937 659.952446,12.8542937 C659.952446,12.8542937 659.851775,5 653.683422,5 L648.594989,5 L643.204544,5 L577,5 L577,9.88670003 L644.668842,9.88670003 C643.964149,9.88670003 650.846346,9.25011842 650.681613,13.5657673 C650.654157,14.5019167 650.681613,19.4073397 650.681613,19.4073397 L650.681613,31.2215456 C650.681613,31.2215456 650.782283,38.9728629 645.895191,41.9217336 C645.895191,41.9217336 659.851775,44.0655158 659.952446,25.9135783 C660.007357,16.552084 660.007357,21.4481455 659.989053,19.4073397 L659.998205,19.4073397 Z" id="Fill-31"></path>
                <path d="M852,50.385 L771,50.385 L771,55.615 L847.458116,55.615 C848.607378,55.045 851.292054,53.395 852,50.385" id="Fill-35"></path>
                <path d="M901.118758,1 L901.118758,146.096963 C901.118758,146.096963 901.676113,170.075359 890,182 C890,182 911,178.51391 911,146.096963 L911,1 L901.118758,1 Z" id="Fill-37"></path>
                <path d="M882,120.302915 L882,20 L872,20 L872,143 C872,143 882,136.059417 882,120.302915" id="Fill-39"></path>
                <path d="M817,159.229746 L817,1 L807,1 L807,182 C807,182 817,175.037043 817,159.229746" id="Fill-41"></path>
                <path d="M771.742727,0 C771.742727,0.00929456326 771.751813,0.0185891265 771.751813,0.037178253 L771.751813,32.2986073 C771.751813,32.2986073 771.851755,39.9852111 767,42.9222931 C767,42.9222931 780.855668,45.0507481 780.955611,27.02859 C781.019211,15.494037 781.001039,1.31982798 780.982868,0 L771.742727,0 Z" id="Fill-43"></path>
                <path d="M782,134.191002 L782,80 L772,80 L772,157 C772,157 782,150.025195 782,134.191002" id="Fill-45"></path>
                <path d="M850.998969,93.2993864 C851.008142,86.5025352 850.953103,86.79038 850.953103,86.79038 C850.953103,86.79038 850.852199,79 844.660338,79 L839.560079,79 L834.166281,79 L772,79 L772,83.8562202 L835.624808,83.8562202 C834.918477,83.8562202 841.825842,83.2248187 841.651552,87.5053493 C841.624033,88.4338809 841.651552,93.2993864 841.651552,93.2993864 L841.651552,146.299969 C841.651552,146.299969 841.76163,153.988211 836.86318,156.92237 C836.86318,156.92237 850.852199,159.048708 850.953103,141.04448 C851.008142,131.76845 850.998969,95.3235852 850.989796,93.2993864 L850.998969,93.2993864 Z" id="Fill-47"></path>
                <path d="M1136,34.385 L1053,34.385 L1053,39.615 L1131.44726,39.615 C1132.59927,39.045 1135.29036,37.395 1136,34.385" id="Fill-49"></path>
                <path d="M1136,82.385 L1070,82.385 L1070,87.615 L1131.45905,87.615 C1132.60808,87.045 1135.2922,85.405 1136,82.385" id="Fill-51"></path>
                <path d="M1136,121.385 L1070,121.385 L1070,126.615 L1131.45905,126.615 C1132.60808,126.045 1135.2922,124.395 1136,121.385" id="Fill-53"></path>
                <path d="M1019,160.302915 L1019,60 L1009,60 L1009,183 C1009,183 1019,176.059417 1019,160.302915" id="Fill-55"></path>
                <path d="M1070,160.190223 L1070,39 L1060,39 L1060,183 C1060,183 1070,176.024957 1070,160.190223" id="Fill-57"></path>
                <path d="M1023.51702,1 L991.263138,78.7180353 C991.263138,78.7180353 988.441155,85.5730602 984,87.1827422 C984,87.1827422 995.695041,93.6399721 1005.77091,70.2533285 C1015.85603,46.8759359 1034,1 1034,1 L1023.51702,1 Z" id="Fill-59"></path>
                <path d="M1060.69361,0 L1034.13169,63.7683773 C1034.13169,63.7683773 1031.35725,70.5786817 1027,72.1892267 C1027,72.1892267 1038.49804,78.6037972 1048.39508,55.347528 C1058.31032,32.0820556 1071,0 1071,0 L1060.69361,0 Z" id="Fill-61"></path>
                <path d="M332.568729,234.871086 C332.439052,239.227645 332.439052,243.677292 332.439052,248.341044 L339.21934,248.341044 L339.876991,243.500423 L341.951834,243.500423 L341.951834,255.062059 L339.876991,255.062059 L339.21934,250.035261 L332.439052,250.035261 C332.439052,254.959661 332.439052,259.539633 332.568729,263.99859 L337.311226,264.445416 L337.311226,266 L322,266 L322,264.445416 L326.205261,264.035825 C326.288625,259.642031 326.288625,255.145839 326.288625,250.603103 L326.288625,248.424824 C326.288625,243.984485 326.288625,239.497602 326.205261,235.00141 L322,234.610437 L322,233 L346.953687,233 L347,241.713117 L344.619489,241.713117 L342.933679,234.871086 L332.568729,234.871086 Z" id="Fill-63"></path>
                <path d="M409.394167,235.712936 L404.964047,236.309293 L404.780605,252.97115 C404.743916,262.729721 400.414688,267.003614 393.040326,267.003614 C385.720995,267.003614 380.731377,263.380293 380.731377,253.703043 L380.731377,248.92315 C380.731377,244.6854 380.731377,240.375364 380.602967,236.092436 L376.741516,235.712936 L376.741516,234.149757 L391.371005,234.149757 L391.371005,235.712936 L386.904195,236.137614 C386.775786,240.32115 386.775786,244.640221 386.775786,248.92315 L386.775786,252.925971 C386.775786,260.868364 389.674167,263.72365 394.700474,263.72365 C400.047805,263.72365 402.946186,260.534043 402.909498,252.492257 L402.762744,236.354471 L397.690577,235.712936 L397.690577,234.149757 L409.394167,234.149757 L409.394167,235.712936 Z" id="Fill-65"></path>
                <polygon id="Fill-67" points="471 234.601403 466.930493 235.175316 466.717769 266 463.665639 266 444.141256 238.479944 444.261491 263.685835 449.921805 264.269004 449.921805 265.814867 438 265.814867 438 264.269004 442.106502 263.732118 442.319226 235.925105 441.616312 234.990182 438.258969 234.601403 438.258969 233 447.591087 233 464.904989 257.058065 464.775504 235.212342 459.078195 234.601403 459.078195 233 471 233"></polygon>
                <path d="M514.131997,247.363881 C520.629073,250.159903 523,252.773179 523,257.488041 C523,263.198871 518.478697,267 510.878864,267 C507.239766,267 503.472013,265.994894 501,264.423273 L501.275689,257.177372 L503.729323,257.177372 L505.567251,264.213115 C507.055973,264.861865 508.461988,265.072024 510.309106,265.072024 C514.784461,265.072024 517.513784,262.988713 517.513784,259.361193 C517.513784,256.309325 516.015873,254.783392 512.156224,253.166084 L510.125313,252.288901 C504.611529,249.894921 501.441103,247.062349 501.441103,242.036818 C501.441103,236.271164 506.182957,233 512.808688,233 C516.236424,233 519.048454,233.95942 521.327485,235.439667 L521.024227,242.301801 L518.561404,242.301801 L516.723475,235.567589 C515.712615,235.092448 514.701754,234.918839 513.424394,234.918839 C509.564745,234.918839 506.89056,236.846815 506.89056,240.291588 C506.89056,243.343456 508.68254,245.042999 511.944862,246.431873 L514.131997,247.363881 Z" id="Fill-69"></path>
                <path d="M563.387255,234.740762 C563.259804,239.227645 563.259804,243.816925 563.259804,248.434133 L563.259804,251.068547 L565.39916,251.068547 C570.870448,251.068547 573.228291,247.689422 573.228291,242.783639 C573.228291,237.542736 570.779412,234.740762 565.708683,234.740762 L563.387255,234.740762 Z M563.259804,252.790691 C563.259804,256.272214 563.259804,260.088858 563.387255,264.007898 L568.048319,264.445416 L568.048319,266 L553,266 L553,264.445416 L557.133053,264.035825 C557.214986,259.65134 557.214986,255.145839 557.214986,250.612412 L557.214986,248.434133 C557.214986,243.993794 557.214986,239.506911 557.133053,235.00141 L553,234.610437 L553,233 L565.963585,233 C575.140056,233 579,236.742172 579,242.783639 C579,248.303808 575.34944,252.790691 565.308123,252.790691 L563.259804,252.790691 Z" id="Fill-71"></path>
                <path d="M622.682884,253.729342 L617.81755,238.527825 L613.119027,253.729342 L622.682884,253.729342 Z M636,264.451096 L636,266 L621.709818,266 L621.709818,264.451096 L626.000579,263.968803 L623.220388,255.36172 L612.62786,255.36172 L610.023747,263.922428 L614.360846,264.451096 L614.360846,266 L604,266 L604,264.451096 L607.808862,263.922428 L617.891688,233 L621.746887,233 L632.330148,264.043002 L636,264.451096 Z" id="Fill-73"></path>
                <path d="M690,264.514647 C687.165695,266.086267 683.988679,267 680.135506,267 C670.308062,267 663,260.850578 663,249.977157 C663,239.067186 670.845283,233 680.311492,233 C683.803431,233 686.684048,233.78581 689.648027,235.439667 L689.546141,242.996238 L687.026758,242.996238 L685.081647,235.53104 C683.803431,235.010212 682.50669,234.790916 681.098799,234.790916 C674.550257,234.790916 669.604117,239.816447 669.604117,250.022843 C669.604117,260.320613 674.466895,265.218221 681.098799,265.218221 C682.608576,265.218221 683.988679,264.953238 685.442882,264.386724 L687.397256,257.003762 L689.953688,257.003762 L690,264.514647 Z" id="Fill-75"></path>
                <path d="M747,257.06347 L746.865108,266 L722,266 L722,264.445416 L726.082734,264.035825 C726.172662,259.642031 726.172662,255.145839 726.172662,250.612412 L726.172662,248.424824 C726.172662,243.993794 726.172662,239.497602 726.082734,235.00141 L722,234.610437 L722,233 L746.010791,233 L746.064748,241.722426 L743.735612,241.722426 L742.098921,234.871086 L732.260791,234.871086 C732.143885,239.227645 732.143885,243.686601 732.143885,248.341044 L738.573741,248.341044 L739.230216,243.500423 L741.244604,243.500423 L741.244604,254.699013 L739.230216,254.699013 L738.618705,250.035261 L732.143885,250.035261 C732.143885,255.062059 732.143885,259.642031 732.260791,264.184767 L742.96223,264.184767 L744.634892,257.06347 L747,257.06347 Z" id="Fill-77"></path>
                <path d="M827.344248,264.259238 C834.468008,264.259238 838.462902,258.794922 838.462902,249.495346 C838.462902,239.93512 834.468008,234.731453 827.651547,234.731453 L824.625113,234.731453 C824.494743,239.227645 824.494743,243.854161 824.494743,248.564457 L824.494743,250.035261 C824.494743,255.108604 824.494743,259.725811 824.625113,264.259238 L827.344248,264.259238 Z M828.312707,233 C838.695704,233 845,239.143865 845,249.448801 C845,259.800282 838.202163,266 827.53049,266 L814,266 L814,264.445416 L818.227696,264.035825 C818.311505,259.642031 818.311505,255.062059 818.311505,250.035261 L818.311505,248.564457 C818.311505,243.984485 818.311505,239.497602 818.227696,234.992102 L814,234.601128 L814,233 L828.312707,233 Z" id="Fill-79"></path>
                <path d="M900,257.06347 L899.874101,266 L875,266 L875,264.445416 L879.082734,264.035825 C879.163669,259.642031 879.163669,255.145839 879.163669,250.612412 L879.163669,248.424824 C879.163669,243.993794 879.163669,239.497602 879.082734,235.00141 L875,234.610437 L875,233 L899.010791,233 L899.064748,241.722426 L896.735612,241.722426 L895.098921,234.871086 L885.251799,234.871086 C885.134892,239.227645 885.134892,243.686601 885.134892,248.341044 L891.573741,248.341044 L892.230216,243.500423 L894.235612,243.500423 L894.235612,254.699013 L892.230216,254.699013 L891.618705,250.035261 L885.134892,250.035261 C885.134892,255.062059 885.134892,259.642031 885.251799,264.184767 L895.96223,264.184767 L897.625899,257.06347 L900,257.06347 Z" id="Fill-81"></path>
                <path d="M944.131997,247.363881 C950.629073,250.159903 953,252.773179 953,257.488041 C953,263.198871 948.478697,267 940.878864,267 C937.239766,267 933.472013,265.994894 931,264.423273 L931.275689,257.177372 L933.720134,257.177372 L935.567251,264.213115 C937.055973,264.861865 938.461988,265.072024 940.309106,265.072024 C944.784461,265.072024 947.513784,262.988713 947.513784,259.361193 C947.513784,256.309325 946.015873,254.783392 942.147034,253.166084 L940.125313,252.288901 C934.611529,249.894921 931.441103,247.062349 931.441103,242.036818 C931.441103,236.271164 936.182957,233 942.808688,233 C946.236424,233 949.048454,233.95942 951.327485,235.439667 L951.024227,242.301801 L948.561404,242.301801 L946.723475,235.567589 C945.712615,235.092448 944.701754,234.918839 943.433584,234.918839 C939.564745,234.918839 936.89056,236.846815 936.89056,240.291588 C936.89056,243.343456 938.68254,245.042999 941.944862,246.431873 L944.131997,247.363881 Z" id="Fill-83"></path>
                <path d="M993.730408,235.00141 C993.598746,239.460367 993.598746,243.891396 993.598746,248.424824 L993.598746,250.612412 C993.598746,255.062059 993.598746,259.604795 993.730408,264.035825 L998,264.445416 L998,266 L983,266 L983,264.445416 L987.269592,264.035825 C987.354232,259.642031 987.354232,255.145839 987.354232,250.612412 L987.354232,248.424824 C987.354232,243.993794 987.354232,239.497602 987.269592,235.00141 L983,234.610437 L983,233 L998,233 L998,234.610437 L993.730408,235.00141 Z" id="Fill-85"></path>
                <path d="M1057.95179,252.057435 L1055.07237,252.40297 C1055.0358,255.44004 1054.98096,258.577133 1054.98096,262.005202 L1054.98096,264.13297 C1051.61706,266.051598 1048.47255,267.006365 1044.42307,267.006365 C1034.37709,267.006365 1027.61273,260.395737 1027.61273,250.011505 C1027.61273,239.809133 1034.54162,233.162133 1044.68816,233.162133 C1048.51825,233.162133 1051.48909,233.989598 1054.20397,235.562691 L1054.10342,243.073528 L1051.53479,243.073528 L1049.70659,235.86276 C1048.39028,235.208063 1047.03741,234.944365 1045.46515,234.944365 C1038.91103,234.944365 1034.12114,240.07283 1034.12114,250.05697 C1034.12114,259.522807 1038.72821,265.224133 1045.19092,265.224133 C1046.65348,265.224133 1047.9058,265.051365 1049.17641,264.70583 L1049.17641,261.8779 C1049.17641,258.695342 1049.13984,255.658272 1049.03929,252.539365 L1044.24025,252.057435 L1044.24025,250.5389 L1057.95179,250.5389 L1057.95179,252.057435 Z" id="Fill-87"></path>
                <polygon id="Fill-89" points="1120 234.601403 1115.93163 235.175316 1115.70972 266 1112.66769 266 1093.14878 238.479944 1093.26898 263.685835 1098.92771 264.269004 1098.92771 265.814867 1087 265.814867 1087 264.269004 1091.1146 263.732118 1091.31802 235.925105 1090.62454 234.990182 1087.26814 234.601403 1087.26814 233 1096.5884 233 1113.89745 257.058065 1113.768 235.212342 1108.07229 234.601403 1108.07229 233 1120 233"></polygon>
            </g>
        </g>
    </g>
</svg>